<?xml version="1.0" standalone="no"?><svg xmlns="http://www.w3.org/2000/svg" viewBox="0 0 1440 320"><path fill="#ff5500" fill-opacity="1" d="M0,64L21.8,96C43.6,128,87,192,131,234.7C174.5,277,218,299,262,272C305.5,245,349,171,393,128C436.4,85,480,75,524,90.7C567.3,107,611,149,655,186.7C698.2,224,742,256,785,245.3C829.1,235,873,181,916,176C960,171,1004,213,1047,218.7C1090.9,224,1135,192,1178,202.7C1221.8,213,1265,267,1309,272C1352.7,277,1396,235,1418,213.3L1440,192L1440,0L1418.2,0C1396.4,0,1353,0,1309,0C1265.5,0,1222,0,1178,0C1134.5,0,1091,0,1047,0C1003.6,0,960,0,916,0C872.7,0,829,0,785,0C741.8,0,698,0,655,0C610.9,0,567,0,524,0C480,0,436,0,393,0C349.1,0,305,0,262,0C218.2,0,175,0,131,0C87.3,0,44,0,22,0L0,0Z"></path></svg>